<svg width="17" height="17" viewBox="0 0 17 17" fill="none" xmlns="http://www.w3.org/2000/svg">
<g clip-path="url(#clip0)">
<path d="M10.4492 11.9531C11.9162 11.9531 13.1055 10.7639 13.1055 9.29688C13.1055 7.82987 11.9162 6.64062 10.4492 6.64062C8.98221 6.64062 7.79297 7.82987 7.79297 9.29688C7.79297 10.7639 8.98221 11.9531 10.4492 11.9531Z" fill="#343434"/>
<path d="M15.1892 4.33838H14.257C14.1824 4.33573 14.1102 4.31104 14.0496 4.26743C13.9889 4.22381 13.9426 4.16322 13.9163 4.0933C13.4786 3.16963 13.0259 2.21338 12.0413 2.21338H8.49968C7.74106 2.21338 7.34085 2.76446 6.61622 3.76534C6.34422 4.13863 6.25497 4.33838 6.01839 4.33838H1.76839C0.307098 4.33838 -0.000318726 5.19475 -0.000318726 5.913V13.2712C-0.0167551 13.508 0.0198257 13.7455 0.10676 13.9664C0.193695 14.1873 0.328796 14.386 0.502226 14.5481C0.675657 14.7102 0.883053 14.8316 1.10931 14.9034C1.33558 14.9753 1.57501 14.9958 1.81018 14.9634H15.1892C15.4244 14.9958 15.6638 14.9753 15.89 14.9034C16.1163 14.8316 16.3237 14.7102 16.4971 14.5481C16.6706 14.386 16.8057 14.1873 16.8926 13.9664C16.9795 13.7455 17.0161 13.508 16.9997 13.2712V5.913C16.9997 5.19475 16.6859 4.33838 15.1892 4.33838ZM14.5205 9.29671C14.5205 10.1023 14.2816 10.8897 13.8341 11.5595C13.3866 12.2293 12.7505 12.7513 12.0062 13.0596C11.262 13.3679 10.4431 13.4485 9.65301 13.2914C8.86294 13.1342 8.13722 12.7463 7.56761 12.1767C6.998 11.6071 6.6101 10.8814 6.45294 10.0913C6.29579 9.30123 6.37644 8.4823 6.68471 7.73807C6.99298 6.99385 7.51502 6.35774 8.18481 5.91021C8.8546 5.46267 9.64205 5.2238 10.4476 5.2238C11.5275 5.22492 12.5628 5.65439 13.3263 6.41797C14.0899 7.18154 14.5194 8.21685 14.5205 9.29671ZM3.54135 6.99463C3.54135 7.16975 3.48942 7.34093 3.39213 7.48654C3.29484 7.63215 3.15655 7.74563 2.99477 7.81265C2.83298 7.87966 2.65495 7.8972 2.4832 7.86303C2.31144 7.82887 2.15368 7.74454 2.02985 7.62071C1.90602 7.49689 1.82169 7.33912 1.78753 7.16737C1.75336 6.99561 1.7709 6.81758 1.83791 6.65579C1.90493 6.49401 2.01841 6.35572 2.16402 6.25843C2.30963 6.16114 2.48081 6.10921 2.65593 6.10921C2.89076 6.10921 3.11597 6.2025 3.28202 6.36855C3.44806 6.53459 3.54135 6.7598 3.54135 6.99463Z" fill="#343434"/>
<path d="M1.77214 3.61904L3.89714 3.63037C3.99107 3.63037 4.08115 3.59306 4.14757 3.52664C4.21399 3.46022 4.2513 3.37014 4.2513 3.2762V3.09912C4.2513 2.81733 4.13936 2.54708 3.9401 2.34782C3.74085 2.14856 3.47059 2.03662 3.1888 2.03662H2.48047C2.19868 2.03662 1.92843 2.14856 1.72917 2.34782C1.52991 2.54708 1.41797 2.81733 1.41797 3.09912V3.26487C1.41797 3.3588 1.45528 3.44889 1.5217 3.51531C1.58812 3.58172 1.6782 3.61904 1.77214 3.61904Z" fill="#343434"/>
</g>
<defs>
<clipPath id="clip0">
<rect width="17" height="17" fill="white"/>
</clipPath>
</defs>
</svg>
