<svg width="15" height="12" viewBox="0 0 15 12" fill="none" xmlns="http://www.w3.org/2000/svg">
<path d="M14.8529 4.25018C14.8081 4.22506 14.7577 4.21257 14.7067 4.21397C14.6557 4.21538 14.606 4.23063 14.5626 4.25818L8.88 7.95218C8.46738 8.21881 7.99053 8.36019 7.50387 8.36019C7.01722 8.36019 6.54036 8.21881 6.12774 7.95218L0.439356 4.25918C0.395991 4.23147 0.346328 4.21605 0.295363 4.21447C0.244398 4.21289 0.193929 4.22521 0.149034 4.25018C0.103722 4.27627 0.0659996 4.31442 0.0397904 4.36067C0.0135811 4.40692 -0.000158189 4.45959 1.37414e-06 4.51318V10.2002C-1.25291e-05 10.6752 0.181652 11.1309 0.505403 11.4681C0.829155 11.8052 1.26875 11.9965 1.72839 12.0002H13.2677C13.7277 11.997 14.1678 11.806 14.492 11.4688C14.8161 11.1315 14.9981 10.6755 14.9981 10.2002V4.51318C14.9986 4.45998 14.9855 4.40759 14.9599 4.36137C14.9344 4.31516 14.8975 4.27678 14.8529 4.25018Z" fill="#343434"/>
<path d="M7.04129 6.427C7.17907 6.5152 7.33793 6.56194 7.5 6.56194C7.66208 6.56194 7.82093 6.5152 7.95871 6.427L14.9594 1.875C14.9718 1.86713 14.982 1.85611 14.9891 1.84298C14.9963 1.82985 15 1.81505 15 1.8C15 1.32468 14.8181 0.868655 14.4939 0.531432C14.1697 0.19421 13.7297 0.00316879 13.2697 0H1.73032C1.27035 0.00316879 0.830258 0.19421 0.50609 0.531432C0.181921 0.868655 -9.25541e-06 1.32468 9.66586e-07 1.8C-6.8717e-05 1.8152 0.00363043 1.83017 0.0107455 1.84347C0.0178606 1.85677 0.0281542 1.86797 0.0406459 1.876L7.04129 6.427Z" fill="#343434"/>
</svg>
