<svg width="14" height="17" viewBox="0 0 14 17" fill="none" xmlns="http://www.w3.org/2000/svg">
<path d="M7.54207 12.1189C7.38162 12.2328 7.19301 12.2935 7.00007 12.2935C6.80713 12.2935 6.61852 12.2328 6.45807 12.1189C6.38006 12.055 6.29098 12.0081 6.19589 11.9808C6.10081 11.9534 6.00159 11.9463 5.9039 11.9597C5.70661 11.9868 5.52754 12.0961 5.40607 12.2634C5.2846 12.4308 5.23069 12.6426 5.25619 12.8522C5.2817 13.0619 5.38453 13.2521 5.54207 13.3812C5.9619 13.7184 6.4738 13.9008 7.00007 13.9008C7.52634 13.9008 8.03824 13.7184 8.45807 13.3812C8.53608 13.3173 8.60147 13.2377 8.65052 13.1469C8.69957 13.0562 8.73132 12.956 8.74395 12.8522C8.75657 12.7485 8.74984 12.643 8.72412 12.542C8.69841 12.441 8.65421 12.3463 8.59407 12.2634C8.53392 12.1806 8.459 12.1111 8.37358 12.059C8.28817 12.0069 8.19392 11.9731 8.09624 11.9597C7.99855 11.9463 7.89933 11.9534 7.80425 11.9808C7.70916 12.0081 7.62007 12.055 7.54207 12.1189Z" fill="#343434"/>
<path d="M14 9.5625V7.4375C14 5.46495 13.2625 3.57319 11.9497 2.17839C10.637 0.783591 8.85652 0 7 0C5.14348 0 3.36301 0.783591 2.05025 2.17839C0.737498 3.57319 0 5.46495 0 7.4375L0 9.5625C0 11.535 0.737498 13.4268 2.05025 14.8216C3.36301 16.2164 5.14348 17 7 17C8.85652 17 10.637 16.2164 11.9497 14.8216C13.2625 13.4268 14 11.535 14 9.5625ZM7 14.875C5.67441 14.8733 4.40356 14.3131 3.46622 13.3171C2.52888 12.3212 2.00159 10.9709 2 9.5625V7.96875C2 7.82785 2.05268 7.69273 2.14645 7.5931C2.24021 7.49347 2.36739 7.4375 2.5 7.4375H3C4.248 7.4375 6.739 7.75625 8.646 5.72475C8.69245 5.67528 8.74762 5.63602 8.80837 5.60924C8.86911 5.58246 8.93423 5.56868 9 5.56868C9.06577 5.56868 9.13089 5.58246 9.19163 5.60924C9.25238 5.63602 9.30755 5.67528 9.354 5.72475C9.98779 6.40102 10.7741 6.8934 11.638 7.15488C11.7417 7.18701 11.8328 7.25396 11.8977 7.3457C11.9626 7.43744 11.9978 7.54905 11.998 7.66381C12 8.32788 12 9.5625 12 9.5625C11.9984 10.9709 11.4711 12.3212 10.5338 13.3171C9.59644 14.3131 8.32559 14.8733 7 14.875Z" fill="#343434"/>
<path d="M6.10694 10.252C6.27904 10.146 6.40455 9.97183 6.45592 9.76766C6.50729 9.56348 6.48032 9.34599 6.38094 9.16292C6.22714 8.88055 6.00615 8.64612 5.74015 8.48314C5.47416 8.32017 5.1725 8.23438 4.86544 8.23438C4.55839 8.23438 4.25673 8.32017 3.99073 8.48314C3.72473 8.64612 3.50375 8.88055 3.34994 9.16292C3.25022 9.34608 3.22307 9.56384 3.27445 9.76828C3.32584 9.97271 3.45155 10.1471 3.62394 10.253C3.79633 10.359 4.00128 10.3879 4.19369 10.3333C4.3861 10.2787 4.55022 10.1451 4.64994 9.96192C4.67331 9.92332 4.70542 9.89157 4.74333 9.86958C4.78125 9.84759 4.82375 9.83607 4.86694 9.83607C4.91014 9.83607 4.95264 9.84759 4.99055 9.86958C5.02847 9.89157 5.06058 9.92332 5.08394 9.96192C5.14994 10.0829 5.24474 10.1834 5.35884 10.2531C5.47294 10.3229 5.60231 10.3595 5.73394 10.3593C5.86501 10.3592 5.99371 10.3221 6.10694 10.252Z" fill="#343434"/>
<path d="M9.13157 8.23438C8.82454 8.23493 8.52301 8.32096 8.25702 8.48389C7.99103 8.64683 7.76987 8.88097 7.61557 9.163C7.51585 9.34616 7.48869 9.56392 7.54008 9.76836C7.59146 9.97279 7.71718 10.1472 7.88957 10.2531C7.97493 10.3056 8.06918 10.3397 8.16693 10.3534C8.26469 10.3672 8.36404 10.3604 8.45931 10.3333C8.65173 10.2787 8.81585 10.1452 8.91557 9.962C8.93893 9.9234 8.97104 9.89165 9.00896 9.86966C9.04687 9.84767 9.08937 9.83615 9.13257 9.83615C9.17576 9.83615 9.21826 9.84767 9.25618 9.86966C9.29409 9.89165 9.3262 9.9234 9.34957 9.962C9.41531 10.0828 9.50979 10.1831 9.62352 10.2528C9.73726 10.3226 9.86625 10.3593 9.99757 10.3594C10.1292 10.3601 10.2587 10.3234 10.3726 10.2531C10.4579 10.2008 10.5327 10.131 10.5926 10.048C10.6525 9.96487 10.6965 9.87005 10.7219 9.76891C10.7474 9.66778 10.7538 9.5623 10.7409 9.45852C10.728 9.35474 10.6959 9.25468 10.6466 9.16406C10.4925 8.88199 10.2715 8.64773 10.0057 8.48462C9.73991 8.3215 9.43852 8.23523 9.13157 8.23438Z" fill="#343434"/>
</svg>
