<svg width="17" height="17" viewBox="0 0 17 17" fill="none" xmlns="http://www.w3.org/2000/svg">
<g clip-path="url(#clip0)">
<path d="M3.71224 3.71794C4.69024 3.71794 5.48307 2.92511 5.48307 1.9471C5.48307 0.969099 4.69024 0.17627 3.71224 0.17627C2.73424 0.17627 1.94141 0.969099 1.94141 1.9471C1.94141 2.92511 2.73424 3.71794 3.71224 3.71794Z" fill="#343434"/>
<path d="M16.9947 9.20833C16.9947 9.02047 16.92 8.8403 16.7872 8.70747C16.6544 8.57463 16.4742 8.5 16.2863 8.5H10.614C10.5905 8.50001 10.5673 8.50472 10.5456 8.51384C10.524 8.52296 10.5043 8.53632 10.4879 8.55312C10.4714 8.56996 10.4584 8.58989 10.4497 8.61177C10.4409 8.63366 10.4366 8.65706 10.4369 8.68063C10.4441 9.02199 10.3467 9.35738 10.1578 9.64183C10.1402 9.6685 10.1301 9.69944 10.1286 9.73138C10.1271 9.76332 10.1343 9.79507 10.1494 9.82325C10.1645 9.85143 10.187 9.875 10.2144 9.89144C10.2418 9.90789 10.2732 9.91661 10.3052 9.91667H11.5051C11.5284 9.91657 11.5514 9.92109 11.573 9.92996C11.5945 9.93882 11.6141 9.95186 11.6305 9.96832C11.647 9.98479 11.66 10.0043 11.6689 10.0259C11.6778 10.0474 11.6823 10.0705 11.6822 10.0938V16.2917C11.6822 16.4795 11.7568 16.6597 11.8896 16.7925C12.0225 16.9254 12.2026 17 12.3905 17C12.5784 17 12.7585 16.9254 12.8914 16.7925C13.0242 16.6597 13.0988 16.4795 13.0988 16.2917V10.0938C13.0988 10.0468 13.1175 10.0017 13.1507 9.96853C13.1839 9.93532 13.229 9.91667 13.2759 9.91667H16.2863C16.4742 9.91667 16.6544 9.84204 16.7872 9.7092C16.92 9.57636 16.9947 9.39619 16.9947 9.20833Z" fill="#343434"/>
<path d="M11.3287 6.37523C11.1408 6.37523 10.9607 6.44985 10.8278 6.58269C10.695 6.71553 10.6204 6.8957 10.6204 7.08356C10.6204 7.27142 10.695 7.45159 10.8278 7.58443C10.9607 7.71726 11.1408 7.79189 11.3287 7.79189H14.3745C14.6652 7.79183 14.9488 7.70236 15.1869 7.5356C15.425 7.36884 15.6061 7.13288 15.7055 6.85973L16.9529 3.42998C16.9876 3.34195 17.0043 3.24786 17.002 3.15327C16.9997 3.05869 16.9785 2.96551 16.9397 2.87925C16.9008 2.79298 16.845 2.71538 16.7757 2.65102C16.7063 2.58666 16.6248 2.53685 16.5358 2.50453C16.4469 2.47221 16.3524 2.45803 16.2579 2.46283C16.1634 2.46763 16.0709 2.49131 15.9857 2.53248C15.9005 2.57364 15.8244 2.63146 15.7619 2.70252C15.6994 2.77357 15.6518 2.85643 15.6219 2.94618L14.4177 6.25906C14.4053 6.29332 14.3825 6.32289 14.3526 6.34369C14.3227 6.3645 14.287 6.37551 14.2506 6.37523H11.3287Z" fill="#343434"/>
<path d="M8.67218 9.73887C8.95397 9.73887 9.22422 9.62693 9.42348 9.42767C9.62274 9.22841 9.73468 8.95816 9.73468 8.67637C9.73468 8.39458 9.62274 8.12432 9.42348 7.92507C9.22422 7.72581 8.95397 7.61387 8.67218 7.61387H7.13439C7.04047 7.61365 6.9504 7.5765 6.88364 7.51045L4.46255 5.0922C4.314 4.94355 4.1247 4.8423 3.9186 4.80124C3.7125 4.76018 3.49885 4.78116 3.30467 4.86153C3.1105 4.9419 2.94451 5.07805 2.82772 5.25276C2.71092 5.42746 2.64856 5.63288 2.64851 5.84303V10.4472C2.64925 10.7894 2.72315 11.1275 2.86526 11.4389C2.87731 11.4658 2.88242 11.4954 2.88014 11.5248C2.87786 11.5542 2.86826 11.5826 2.85222 11.6074C2.83617 11.6322 2.81418 11.6525 2.78825 11.6667C2.76233 11.6808 2.73328 11.6882 2.70376 11.6882H2.52314C2.48091 11.6884 2.44003 11.6734 2.40793 11.6459C2.37582 11.6185 2.35462 11.5805 2.34818 11.5387L1.41176 5.55545C1.4003 5.46094 1.36991 5.36971 1.3224 5.28721C1.27489 5.20472 1.21124 5.13264 1.13524 5.0753C1.05925 5.01795 0.972478 4.97651 0.880111 4.95346C0.787743 4.9304 0.691676 4.92621 0.597649 4.94112C0.503622 4.95602 0.413566 4.98973 0.332861 5.04023C0.252155 5.09073 0.182457 5.15698 0.127932 5.23502C0.0734057 5.31306 0.0351708 5.40129 0.0155115 5.49444C-0.00414781 5.58759 -0.00482812 5.68374 0.0135112 5.77716L1.03705 12.3186C1.04216 12.342 1.04216 12.3661 1.03705 12.3895L0.0453862 16.1054C0.00213672 16.2845 0.0304329 16.4735 0.124266 16.6322C0.218099 16.7908 0.370078 16.9066 0.547929 16.955C0.72578 17.0034 0.915495 16.9806 1.07679 16.8914C1.23808 16.8022 1.35824 16.6536 1.41176 16.4772L2.27239 13.2352C2.28264 13.1976 2.30497 13.1644 2.33594 13.1407C2.36692 13.117 2.40482 13.1042 2.4438 13.1042H6.87797C6.91253 13.1041 6.94635 13.1141 6.97521 13.1332C7.00406 13.1522 7.02666 13.1793 7.04018 13.2111C7.28597 13.7735 8.41364 16.3781 8.41364 16.3781C8.53039 16.6346 8.74427 16.8342 9.00822 16.9331C9.27217 17.0319 9.56457 17.0218 9.82109 16.9051C10.0776 16.7883 10.2773 16.5744 10.3761 16.3105C10.4749 16.0465 10.4649 15.7541 10.3481 15.4976L8.9548 12.2542C8.75725 11.8211 8.43948 11.4539 8.03929 11.1963C7.63909 10.9386 7.17332 10.8013 6.69734 10.8007H5.13051C5.03658 10.8007 4.9465 10.7633 4.88008 10.6969C4.81366 10.6305 4.77634 10.5404 4.77634 10.4465V8.83574C4.7767 8.80085 4.78735 8.76685 4.80697 8.73799C4.82658 8.70914 4.85428 8.68672 4.88659 8.67355C4.9189 8.66038 4.95439 8.65706 4.98858 8.66398C5.02278 8.67091 5.05416 8.68779 5.0788 8.71249L5.38126 9.01495C5.61095 9.24588 5.88417 9.42896 6.18509 9.55359C6.48602 9.67821 6.80868 9.74191 7.13439 9.74099L8.67218 9.73887Z" fill="#343434"/>
</g>
<defs>
<clipPath id="clip0">
<rect width="17" height="17" fill="white"/>
</clipPath>
</defs>
</svg>
