<svg width="17" height="17" viewBox="0 0 17 17" fill="none" xmlns="http://www.w3.org/2000/svg">
<path d="M12.341 0.00683958C11.5444 0.00584349 10.7608 0.209362 10.0654 0.597911C9.36992 0.98646 8.78585 1.54703 8.36909 2.22595C7.95232 2.90487 7.71682 3.6794 7.68512 4.47541C7.65342 5.27141 7.82659 6.06222 8.18805 6.77213L7.18575 8.8773C7.12322 9.00972 7.10326 9.15826 7.12863 9.30249C7.154 9.44672 7.22345 9.57954 7.32742 9.68267C7.43116 9.78566 7.56393 9.85444 7.7079 9.87976C7.85187 9.90509 8.00014 9.88575 8.13279 9.82434L10.2373 8.82205C10.8651 9.13934 11.5566 9.31033 12.2599 9.32218C12.9632 9.33402 13.6601 9.18642 14.2982 8.89045C14.9364 8.59447 15.4992 8.15782 15.9444 7.61324C16.3897 7.06867 16.7058 6.43032 16.8691 5.74611C17.0324 5.06189 17.0386 4.34958 16.8872 3.66263C16.7359 2.97567 16.4309 2.33192 15.9952 1.77967C15.5595 1.22743 15.0044 0.781036 14.3715 0.473995C13.7386 0.166955 13.0444 0.00724137 12.341 0.00683958ZM12.341 7.90901C11.7379 7.90866 11.1471 7.73934 10.6353 7.42026C10.5346 7.35763 10.4197 7.3213 10.3013 7.31462C10.1828 7.30794 10.0646 7.33111 9.95746 7.38201L9.31996 7.68446L9.62242 7.04696C9.67274 6.94077 9.69585 6.82373 9.68966 6.70638C9.68348 6.58904 9.6482 6.47507 9.587 6.37476C9.20993 5.76439 9.04611 5.04613 9.12124 4.33262C9.19638 3.61912 9.50622 2.95073 10.0022 2.4323C10.4981 1.91387 11.1521 1.57471 11.8616 1.46803C12.571 1.36134 13.2959 1.49317 13.9223 1.84282C14.5488 2.19248 15.0415 2.74018 15.3232 3.40004C15.6048 4.05989 15.6595 4.79457 15.4786 5.48884C15.2977 6.18311 14.8915 6.7977 14.3236 7.23621C13.7558 7.67472 13.0585 7.91236 12.341 7.91184V7.90901Z" fill="#343434"/>
<path d="M10.8164 4.2998C11.1098 4.2998 11.3477 4.06196 11.3477 3.76855C11.3477 3.47515 11.1098 3.2373 10.8164 3.2373C10.523 3.2373 10.2852 3.47515 10.2852 3.76855C10.2852 4.06196 10.523 4.2998 10.8164 4.2998Z" fill="#343434"/>
<path d="M14.0039 4.2998C14.2973 4.2998 14.5352 4.06196 14.5352 3.76855C14.5352 3.47515 14.2973 3.2373 14.0039 3.2373C13.7105 3.2373 13.4727 3.47515 13.4727 3.76855C13.4727 4.06196 13.7105 4.2998 14.0039 4.2998Z" fill="#343434"/>
<path d="M13.4167 5.36141H11.4115C11.3573 5.36024 11.3036 5.37168 11.2546 5.39484C11.2057 5.41799 11.1627 5.45223 11.1293 5.49483C11.0958 5.53743 11.0727 5.58723 11.0618 5.6403C11.0509 5.69336 11.0525 5.74824 11.0665 5.80058C11.1597 6.08401 11.3399 6.33079 11.5816 6.50574C11.8232 6.6807 12.114 6.77489 12.4123 6.77489C12.7107 6.77489 13.0014 6.6807 13.2431 6.50574C13.4847 6.33079 13.665 6.08401 13.7582 5.80058C13.7722 5.74852 13.774 5.69392 13.7633 5.64106C13.7527 5.58821 13.7299 5.53854 13.6968 5.49598C13.6637 5.45341 13.6212 5.4191 13.5726 5.39575C13.524 5.3724 13.4707 5.36065 13.4167 5.36141Z" fill="#343434"/>
<path d="M10.9793 11.1723C10.5656 10.7599 10.0052 10.5282 9.42101 10.5282C8.83679 10.5282 8.27641 10.7599 7.86268 11.1723L7.27689 11.7588C6.82229 12.1376 6.48941 12.642 6.31984 13.2089C6.15027 13.7758 6.15153 14.3801 6.32347 14.9463C4.3979 14.1322 2.86529 12.5998 2.0508 10.6744C2.61698 10.8466 3.22138 10.848 3.78835 10.6784C4.35532 10.5088 4.85968 10.1758 5.2383 9.72097L5.82622 9.13376C6.2387 8.72003 6.47032 8.15965 6.47032 7.57543C6.47032 6.99121 6.2387 6.43083 5.82622 6.0171L3.2833 3.47985C3.09864 3.29526 2.87116 3.15923 2.62117 3.0839C2.37117 3.00856 2.10641 2.99626 1.8505 3.04809C1.5946 3.09991 1.35549 3.21426 1.1545 3.38093C0.953513 3.5476 0.79689 3.76141 0.698596 4.00331C-0.00237216 5.72234 -0.180386 7.61003 0.186863 9.42981C0.554112 11.2496 1.45029 12.9205 2.76308 14.2331C4.07587 15.5458 5.74688 16.4417 7.5667 16.8088C9.38651 17.1758 11.2742 16.9976 12.9931 16.2964C13.2349 16.198 13.4486 16.0413 13.6151 15.8402C13.7816 15.6391 13.8958 15.4 13.9475 15.1441C13.9992 14.8882 13.9868 14.6235 13.9113 14.3736C13.8359 14.1237 13.6998 13.8963 13.5152 13.7117L10.9793 11.1723Z" fill="#343434"/>
</svg>
