<svg width="138" height="138" viewBox="0 0 138 138" fill="none" xmlns="http://www.w3.org/2000/svg">
<path d="M45.2812 138C70.2894 138 90.5625 117.727 90.5625 92.7188C90.5625 67.7106 70.2894 47.4375 45.2812 47.4375C20.2731 47.4375 0 67.7106 0 92.7188C0 117.727 20.2731 138 45.2812 138Z" fill="#EF7463"/>
<path d="M71.1562 138V118.594" stroke="#002331" stroke-width="3" stroke-miterlimit="10"/>
<path d="M92.7188 118.594V138" stroke="#002331" stroke-width="3" stroke-miterlimit="10"/>
<path d="M99.1875 107.812V116.438C99.1875 117.63 98.2237 118.594 97.0312 118.594H66.8438C65.6513 118.594 64.6875 117.63 64.6875 116.438V107.812" stroke="#002331" stroke-width="3" stroke-miterlimit="10"/>
<path d="M81.9375 109.969C111.709 109.969 135.844 85.8341 135.844 56.0625C135.844 26.2909 111.709 2.15625 81.9375 2.15625C52.1659 2.15625 28.0312 26.2909 28.0312 56.0625C28.0312 85.8341 52.1659 109.969 81.9375 109.969Z" stroke="#002331" stroke-width="3" stroke-miterlimit="10"/>
<path d="M92.7188 44.2031C92.7188 51.75 88.486 58.2188 81.9375 58.2188C75.389 58.2188 71.1562 51.75 71.1562 44.2031C71.1562 36.6562 73.3125 32.3438 81.9375 32.3438C90.5625 32.3438 92.7188 36.6562 92.7188 44.2031Z" stroke="#002331" stroke-width="3" stroke-miterlimit="10"/>
<path d="M88.4062 56.0625L103.5 64.6875C103.5 64.6875 103.5 65.4292 103.5 69C103.5 72.5708 101.344 75.4688 99.1875 75.4688H64.6875C62.5312 75.4688 60.375 72.5708 60.375 69C60.375 65.4292 60.375 64.6875 60.375 64.6875L75.4688 56.0625" stroke="#002331" stroke-width="3" stroke-miterlimit="10"/>
<path d="M81.9375 125.062V138" stroke="#002331" stroke-width="3" stroke-miterlimit="10"/>
<path d="M81.9375 101.344C106.946 101.344 127.219 81.0706 127.219 56.0625C127.219 31.0544 106.946 10.7812 81.9375 10.7812C56.9294 10.7812 36.6562 31.0544 36.6562 56.0625C36.6562 81.0706 56.9294 101.344 81.9375 101.344Z" stroke="#002331" stroke-width="3" stroke-miterlimit="10"/>
<path d="M47.4375 56.0625C47.4375 37.0077 62.8849 21.5625 81.9375 21.5625" stroke="#002331" stroke-width="3" stroke-miterlimit="10"/>
</svg>
